# xmcd
#
# Track frame offsets:
# 150
# 16602
# 28240
# 42512
# 58430
# 74775
# 90232
# 103932
# 121040
# 135047
# 151627
# 169502
# 187000
# 205345
#
# Disc length: 2950 seconds
#
#
# Revision: 0
# Processed by: cddbd v1.5.1PL2 Copyright (c) Steve Scherf et al.
# Submitted via: FreeRIP 2.943 
#
DISCID=b70b840e
DTITLE=Various Artist - Country #1 Hits
DYEAR=2005
DGENRE=Country
TTITLE0=Wild Angels - Martina McBride
TTITLE1=Little Bitty - Alan Jackson
TTITLE2=Husbands And Wives - Brooks and Dunn
TTITLE3=What About Now - Lonestar
TTITLE4=One More Day - Diamond Rio
TTITLE5=You Can Feel Bad - Patty Loveless
TTITLE6=Ten Round With Jose Cuervo - Tracy Byrd
TTITLE7=We Danced - Brad Paisley
TTITLE8=Running Out Of Reasons To Run - Rick Trevino
TTITLE9=I Can Still Feel You - Collin Raye
TTITLE10=Bigger Than The Beatles - Joe Diffie
TTITLE11=Living In A Moment - Ty Herndon
TTITLE12=How Do You Get That Lonely - Blaine Larsen
TTITLE13=Blood, Sweat and Beers - Jeff Bates
EXTD=Bonus tracks 13 and 14 by Blaine Larsen and Jeff Bates
EXTT0=
EXTT1=
EXTT2=
EXTT3=
EXTT4=
EXTT5=
EXTT6=
EXTT7=
EXTT8=
EXTT9=
EXTT10=
EXTT11=
EXTT12=
EXTT13=
PLAYORDER=
